<svg viewBox="0 0 72 72" xmlns="http://www.w3.org/2000/svg"><path d="m62.2981 16.4519c-8-6-44-6-52 0 0 0-4 4-2 10h13v-5c6-4 24-4 30 0v5h13c2-6-2-10-2-10z" fill="#ea5a47"/><path d="m50.9706 21.1464 13.8769-.0883-.4419 5.0381-12.4628-.0884z" fill="#d22f27"/><path d="m7.1299 21.1464 13.877-.0883-.4419 5.0381-12.4628-.0884z" fill="#d22f27"/><path d="m24.875 29.3125-5.875 3.6875-3.8125 8.3125-.25 11 .0625 3.6877 42-.0003-.3125-15.4374-3.6875-7.5625-6.0625-4-.9375-1.375-20.3125.9375z" fill="#ea5a47"/><path d="m26.75 25-.75 4v1h20.125l-.8438-5.4688-2.0937-.2812-1.5 2.1875-11.625.0625-1.25-2.0625-2.1563.1563z" fill="#d22f27"/><path d="m39.3438 29.8438s12.9062 4.4062 12.6562 25.9062c6.375 2.0625 5.5-6.5 5.5-6.5l-2.5833-13.4167-5.75-6.25z" fill="#d22f27"/><circle cx="30" cy="35" r="2"/><circle cx="30" cy="41" r="2"/><circle cx="30" cy="47" r="2"/><circle cx="36" cy="35" r="2"/><circle cx="36" cy="41" r="2"/><circle cx="36" cy="47" r="2"/><circle cx="42" cy="35" r="2"/><circle cx="42" cy="41" r="2"/><circle cx="42" cy="47" r="2"/><g style="fill:none;stroke:#000;strokeLinecap:round;strokeLinejoin:round;stroke-miterlimit:10;strokeLinecap:2"><path d="m26 24v5s-3.5.5-7 4-4 9.9999-4 9.9999v13.0003l3-.0002h36l3-.0001v-12.8747s-.5-6.6252-4-10.1252-7-4-7-4v-5h-3l-1.0003 3h-12.1864l-.8133-3z"/><path d="m61.9839 16.4519c-8-6-44-6-52 0 0 0-4 4-2 10h13v-5c6-4 24-4 30 0v5h13c2-6-2-10-2-10z"/></g></svg>